<svg height="64" viewBox="0 0 64 64" width="64" xmlns="http://www.w3.org/2000/svg"><g fill="#0a1"><path d="m56 24c-2.2 0-4 1.8-4 4v16c0 2.2 1.8 4 4 4s4-1.8 4-4v-16c0-2.2-1.8-4-4-4zm-48 0c-2.2 0-4 1.8-4 4v16c0 2.2 1.8 4 4 4s4-1.8 4-4v-16c0-2.2-1.8-4-4-4zm6 22c0 3.314 2.686 6 6 6v8c0 2.2 1.8 4 4 4s4-1.8 4-4v-8h8v8c0 2.2 1.8 4 4 4s4-1.8 4-4v-8c3.314 0 6-2.686 6-6v-22h-36z"/><path d="m49.889 20c-.607-5.493-3.688-10.237-8.101-13.103l2.002-4.003c.494-.988.093-2.189-.894-2.683s-2.189-.093-2.683.894l-2.009 4.018-.522-.207c-1.785-.594-3.695-.916-5.68-.916s-3.895.322-5.681.916l-.522.207-2.009-4.018c-.494-.988-1.695-1.388-2.683-.894s-1.388 1.695-.895 2.683l2.001 4.003c-4.413 2.866-7.494 7.61-8.101 13.103v2h35.889v-2h-.111zm-23.889-4c-1.105 0-2-.896-2-2 0-1.103.893-1.997 1.996-2h.006.003c1.102.003 1.995.897 1.995 2 0 1.104-.895 2-2 2zm12 0c-1.105 0-2-.896-2-2 0-1.103.893-1.997 1.995-2h.003.006c1.102.002 1.996.897 1.996 2 0 1.104-.895 2-2 2z"/></g></svg>