<svg height="512" viewBox="0 0 1024 1024" width="512" xmlns="http://www.w3.org/2000/svg" xmlns:xlink="http://www.w3.org/1999/xlink"><linearGradient id="a" gradientUnits="userSpaceOnUse" x1="512" x2="512" y1="66" y2="958"><stop offset="0" stop-color="#004c6d"/><stop offset="1" stop-color="#002535"/></linearGradient><path d="m831.991 236.653-306.632-167.252c-4.153-2.272-8.753-3.401-13.352-3.401s-9.185 1.129-13.352 3.401l-306.632 167.252c-8.962 4.879-14.523 14.273-14.523 24.475v223.004c0 122.638 31.625 221.79 96.7 303.131 50.845 63.556 120.339 115.307 225.347 167.796 3.93 1.965 8.195 2.941 12.46 2.941s8.544-.976 12.46-2.941c104.994-52.503 174.488-104.254 225.333-167.796 65.075-81.341 96.7-180.493 96.7-303.131v-223.004c0-10.202-5.575-19.582-14.523-24.475z" fill="url(#a)"/><path d="m486.884 673.372c-24.898 14.038-64.603 34.301-136.225 55.306-7.787 2.278-15.707-1.51-18.992-7.576-5.668-9.668-.715-22.143 10.119-25.348 78.297-23.071 115.989-44.897 138.477-57.955 32.314-18.727 40.022-18.197 62.934-.027 6.781 5.377 16.21 12.847 29.851 21.667 7.894 5.112 10.013 15.654 4.742 23.389l-.345.529c-5.165 7.549-15.442 9.615-23.15 4.636-6.489-4.212-12.131-8.158-17.005-11.708-23.388-17.111-25.693-16.872-50.406-2.913zm-191.743-157.628c71.516-20.289 124.862-59.994 146.079-110.082 11.76-27.812 35.016-39.599 57.822-39.599 37.824 0 74.43 32.447 55.227 77.767-11.655 27.6-27.865 52.313-47.545 74.219-6.093 6.78-5.907 17.084.423 23.653 6.622 6.834 17.35 7.92 27.23-3.285 21.772-24.712 39.095-52.101 51.518-81.396 12.449-29.454 10.304-59.12-6.066-83.568-17.111-25.534-48.075-41.427-80.813-41.427-18.515 0-36.315 5.086-51.492 14.727-16.608 10.516-29.719 26.329-37.93 45.718-17.138 40.499-62.087 73.026-123.273 90.402-7.629 2.172-12.847 9.165-12.714 17.032.185 11.018 10.859 18.859 21.534 15.839zm186.34 71.119c8.132-6.065 9.006-17.799 2.066-24.978l-.45-.476c-5.907-6.092-15.443-6.834-22.223-1.749-42.751 31.865-94.349 54.75-149.125 68.577-4.742 1.192-8.741 4.317-11.072 8.555-2.305 4.265-2.755 9.297-1.166 13.88 2.835 8.211 11.522 12.846 19.998 10.727 52.552-13.217 101.156-33.93 142.292-60.789 6.754-4.423 13.323-9.006 19.68-13.747zm35.758-158.078c3.682-8.661-.424-18.647-9.165-22.276-8.74-3.628-18.779.451-22.461 9.112-28.024 66.193-98.825 117.261-192.114 139.749-8.874 2.145-14.595 10.7-13.112 19.653 1.616 9.589 11.046 15.866 20.661 13.562 91.885-22.117 179.691-73.583 216.191-159.8zm5.801-162.58c-59.385-6.357-115.91 18.223-149.205 56.657-6.886 7.946-5.112 20.051 3.523 25.825 7.046 4.662 16.502 3.39 21.959-3.02 25.216-29.533 70.509-50.909 120.068-45.638 40.605 4.344 77.741 25.773 98.401 61.107 4.079 6.993 12.555 10.224 20.316 7.735 10.304-3.311 14.939-15.257 9.509-24.554-26.037-44.553-72.496-72.55-124.571-78.112zm-218.787 67.305c7.284 4.979 16.581 3.046 21.428-4.212l10.277-15.177c33.269-47.651 87.224-75.596 149.364-78.88 9.191-.477 16.422-8.026 16.422-17.164 0-9.615-8.132-17.27-17.8-16.767-60.232 3.179-117.763 26.567-159.349 72.391-11.31 12.661-18.276 21.799-25.031 37.321-4.45 10.118-2.728 17.429 4.689 22.488zm-4.397 108.943c33.798-11.045 51.836-26.752 64.603-43.784 5.854-7.761 3.894-18.806-4.159-24.157-7.655-5.085-17.932-3.364-23.494 3.894-9.854 12.82-22.965 23.68-47.439 31.706-5.934 1.933-10.569 6.939-11.549 14.303-1.589 12.184 10.198 21.905 22.038 18.038zm426.926 149.496c-33.003-10.118-54.034-22.78-63.782-38.275-12.105-19.23-7.549-44.817-2.278-74.483 3.444-19.468 7.284-41.188 6.649-64.126-.159-5.404-2.861-10.436-7.311-13.562-4.45-3.125-10.145-3.973-15.336-2.304-7.125 2.304-11.84 8.979-11.602 16.422.61 19.468-2.781 38.725-6.145 57.69-5.933 33.48-12.078 68.1 6.993 98.375 14.383 22.885 41.612 40.208 84.151 53.16 8.979 2.755 18.488-2.569 20.793-11.654 2.225-9.138-3.046-18.462-12.132-21.243zm-19.018 62.087c-61.345-19.84-101.5-47.148-121.869-82.747-4.688-8.185-15.151-11.046-23.389-6.384-8.237 4.635-11.098 15.018-6.436 23.203 24.58 42.91 70.642 75.198 139.987 97.872 8.794 2.86 18.329-1.431 21.905-9.907 3.735-8.846-.927-19.044-10.198-22.037zm-29.639 55.703c-19.098-6.966-35.653-13.826-50.062-20.448-7.496-3.444-16.396-1.007-21.004 5.774-6.622 9.694-2.411 20.978 6.515 25.057 15.39 7.072 33.057 14.383 53.346 21.773 7.841 2.861 16.211-.636 19.813-6.596 6.039-9.244 1.854-21.719-8.608-25.56zm-244.481 45.029c-3.92-7.682-13.084-11.125-21.137-7.999-7.708 2.993-16.104 6.092-25.348 9.297-5.669 1.96-9.933 6.675-11.257 12.502-2.861 12.608 9.085 24.263 20.925 20.21 10.33-3.549 19.68-6.993 28.209-10.304 8.661-3.364 13.747-13.641 8.608-23.706zm305.482-223.184c-5.166-2.119-8.847-4.583-11.019-7.39-6.039-7.841-3.046-24.713.715-46.089 6.171-34.937 14.647-82.773-6.754-142-24.74-68.39-93.528-114.479-168.435-129.63-10.78-2.172-20.819 6.039-20.819 16.873 0 7.973 5.642 14.833 13.535 16.396 68.894 13.667 124.227 54.829 143.43 107.857 18.356 50.724 11.099 91.674 5.271 124.598-5.006 28.421-9.376 52.975 5.854 72.681 6.145 8 14.965 14.171 27.044 18.807 10.092 3.867 21.11-2.782 22.329-13.377.927-7.999-3.629-15.654-11.151-18.726zm-172.991 273.59c-66.113-29.031-48.393-29.057-111.274.106-6.039 2.781-9.8 8.926-9.483 15.521.477 10.278 9.774 16.184 18.383 16.184 2.437 0 4.821-.477 6.913-1.457 45.029-21.004 29.375-22.249 80.151.133 2.014.9 4.265 1.324 6.622 1.324 8.476 0 17.932-5.615 18.489-15.972.37-6.781-3.523-13.085-9.801-15.839zm67.994-42.566c-41.824-16.819-71.808-32.977-90.879-43.228-30.01-16.157-33.507-19.018-69.98-.264l-3.338 1.721c-8.237 4.212-11.495 14.224-7.284 22.409 4.874 9.535 15.257 11.787 23.018 7.814 15.177-7.761 23.203-11.496 41.241-1.775 19.919 10.701 51.333 27.6 95.143 45.188 12.397 4.979 25.031-5.986 22.674-18.912-1.007-5.828-5.033-10.701-10.595-12.953z" fill="#fff"/></svg>